<?xml version="1.0" standalone="no"?>
<!DOCTYPE svg PUBLIC "-//W3C//DTD SVG 20010904//EN"
 "http://www.w3.org/TR/2001/REC-SVG-20010904/DTD/svg10.dtd">
<svg version="1.0" xmlns="http://www.w3.org/2000/svg"
 width="192.000000pt" height="192.000000pt" viewBox="0 0 192.000000 192.000000"
 preserveAspectRatio="xMidYMid meet">
<metadata>
Created by potrace 1.10, written by Peter Selinger 2001-2011
</metadata>
<g transform="translate(0.000000,192.000000) scale(0.100000,-0.100000)"
fill="#006699" stroke="none">
<path d="M830 1794 c-9 -10 -10 -18 -2 -26 12 -12 32 -2 32 17 0 21 -16 26
-30 9z"/>
<path d="M1050 1775 c0 -8 9 -15 20 -15 11 0 20 7 20 15 0 8 -9 15 -20 15 -11
0 -20 -7 -20 -15z"/>
<path d="M813 1582 c-11 -7 -16 -25 -14 -54 2 -26 48 -34 72 -13 29 27 10 75
-31 75 -8 0 -20 -4 -27 -8z"/>
<path d="M1048 1582 c-10 -2 -21 -15 -24 -29 -14 -53 65 -85 81 -32 14 42 -13
71 -57 61z"/>
<path d="M590 1554 c-9 -10 -10 -18 -2 -26 12 -12 32 -2 32 17 0 21 -16 26
-30 9z"/>
<path d="M350 1534 c0 -9 5 -14 12 -12 18 6 21 28 4 28 -9 0 -16 -7 -16 -16z"/>
<path d="M1285 1540 c-8 -13 20 -24 41 -16 8 3 12 10 9 16 -8 13 -42 13 -50 0z"/>
<path d="M1522 1538 c6 -18 28 -21 28 -4 0 9 -7 16 -16 16 -9 0 -14 -5 -12
-12z"/>
<path d="M787 1352 c-22 -25 -21 -75 1 -95 25 -22 75 -21 95 1 22 25 21 75 -1
95 -25 22 -75 21 -95 -1z"/>
<path d="M1017 1352 c-22 -25 -21 -75 1 -95 25 -22 75 -21 95 1 22 25 21 75
-1 95 -25 22 -75 21 -95 -1z"/>
<path d="M578 1342 c-20 -4 -32 -34 -23 -61 16 -50 94 -20 81 32 -6 25 -27 36
-58 29z"/>
<path d="M1274 1342 c-42 -27 -9 -90 41 -78 46 12 33 86 -15 86 -8 0 -20 -4
-26 -8z"/>
<path d="M354 1326 c-8 -21 3 -49 16 -41 5 3 10 15 10 25 0 25 -18 36 -26 16z"/>
<path d="M1524 1309 c-9 -16 12 -33 31 -25 14 5 15 9 5 21 -15 18 -26 19 -36
4z"/>
<path d="M794 1138 c-24 -11 -44 -48 -44 -79 0 -30 53 -79 85 -79 35 0 85 50
85 85 0 34 -50 85 -82 84 -13 0 -33 -5 -44 -11z"/>
<path d="M1009 1121 c-17 -18 -29 -40 -29 -56 0 -35 50 -85 85 -85 32 0 85 49
85 79 0 50 -41 91 -91 91 -11 0 -34 -13 -50 -29z"/>
<path d="M547 1112 c-22 -25 -21 -75 1 -95 25 -22 75 -21 95 1 22 25 21 75 -1
95 -25 22 -75 21 -95 -1z"/>
<path d="M1257 1112 c-22 -25 -21 -75 1 -95 25 -22 75 -21 95 1 22 25 21 75
-1 95 -25 22 -75 21 -95 -1z"/>
<path d="M333 1102 c-11 -7 -16 -25 -14 -54 2 -26 48 -34 72 -13 29 27 10 75
-31 75 -8 0 -20 -4 -27 -8z"/>
<path d="M1528 1102 c-10 -2 -21 -15 -24 -29 -14 -53 65 -85 81 -32 14 42 -13
71 -57 61z"/>
<path d="M110 1070 c0 -11 7 -20 15 -20 8 0 15 9 15 20 0 11 -7 20 -15 20 -8
0 -15 -9 -15 -20z"/>
<path d="M1764 1069 c-9 -16 12 -33 31 -25 14 5 15 9 5 21 -15 18 -26 19 -36
4z"/>
<path d="M779 891 c-42 -43 -34 -106 18 -130 39 -18 63 -13 94 18 38 38 38 74
0 112 -38 38 -74 38 -112 0z"/>
<path d="M1009 891 c-17 -18 -29 -40 -29 -56 0 -32 49 -85 79 -85 50 0 91 41
91 91 0 30 -53 79 -85 79 -16 0 -38 -12 -56 -29z"/>
<path d="M547 882 c-22 -25 -21 -75 1 -95 25 -22 75 -21 95 1 22 25 21 75 -1
95 -25 22 -75 21 -95 -1z"/>
<path d="M1257 882 c-22 -25 -21 -75 1 -95 25 -22 75 -21 95 1 22 25 21 75 -1
95 -25 22 -75 21 -95 -1z"/>
<path d="M326 874 c-26 -25 -18 -70 14 -74 35 -5 50 1 56 25 4 18 1 32 -11 45
-22 24 -38 25 -59 4z"/>
<path d="M1507 862 c-33 -36 4 -82 53 -67 19 6 25 22 20 55 -5 33 -48 40 -73
12z"/>
<path d="M96 851 c-9 -15 23 -36 36 -23 5 5 7 15 4 21 -9 13 -33 14 -40 2z"/>
<path d="M1760 830 c0 -11 7 -20 15 -20 8 0 15 9 15 20 0 11 -7 20 -15 20 -8
0 -15 -9 -15 -20z"/>
<path d="M787 642 c-22 -25 -21 -75 1 -95 25 -22 75 -21 95 1 22 25 21 75 -1
95 -25 22 -75 21 -95 -1z"/>
<path d="M1017 642 c-22 -25 -21 -75 1 -95 25 -22 75 -21 95 1 22 25 21 75 -1
95 -25 22 -75 21 -95 -1z"/>
<path d="M1275 631 c-21 -24 -13 -70 13 -72 43 -3 62 9 62 41 0 41 -48 60 -75
31z"/>
<path d="M573 632 c-24 -15 -20 -69 7 -77 29 -9 57 3 64 27 10 39 -37 72 -71
50z"/>
<path d="M336 611 c-9 -15 23 -36 36 -23 5 5 7 15 4 21 -9 13 -33 14 -40 2z"/>
<path d="M1524 606 c-8 -21 3 -49 16 -41 5 3 10 15 10 25 0 25 -18 36 -26 16z"/>
<path d="M806 394 c-26 -25 -18 -70 14 -74 35 -5 50 1 56 25 4 18 1 32 -11 45
-22 24 -38 25 -59 4z"/>
<path d="M1027 382 c-33 -36 4 -82 53 -67 19 6 25 22 20 55 -5 33 -48 40 -73
12z"/>
<path d="M350 366 c0 -9 7 -16 16 -16 17 0 14 22 -4 28 -7 2 -12 -3 -12 -12z"/>
<path d="M565 370 c-8 -13 20 -24 41 -16 20 8 9 26 -16 26 -10 0 -22 -5 -25
-10z"/>
<path d="M1283 364 c-9 -23 11 -38 26 -20 13 16 7 36 -10 36 -5 0 -12 -7 -16
-16z"/>
<path d="M1527 373 c-12 -11 -8 -23 8 -23 8 0 15 7 15 15 0 16 -12 20 -23 8z"/>
<path d="M810 125 c0 -8 9 -15 20 -15 11 0 20 7 20 15 0 8 -9 15 -20 15 -11 0
-20 -7 -20 -15z"/>
<path d="M1043 124 c-9 -23 11 -38 26 -20 13 16 7 36 -10 36 -5 0 -12 -7 -16
-16z"/>
</g>
</svg>
