<?xml version="1.0" standalone="no"?>
<!DOCTYPE svg PUBLIC "-//W3C//DTD SVG 20010904//EN"
 "http://www.w3.org/TR/2001/REC-SVG-20010904/DTD/svg10.dtd">
<svg version="1.0" xmlns="http://www.w3.org/2000/svg"
 width="192.000000pt" height="192.000000pt" viewBox="0 0 192.000000 192.000000"
 preserveAspectRatio="xMidYMid meet">
<metadata>
Created by potrace 1.10, written by Peter Selinger 2001-2011
</metadata>
<g transform="translate(0.000000,192.000000) scale(0.100000,-0.100000)"
fill="#000000" stroke="none">
<path d="M873 1797 c-40 -27 -73 -85 -73 -127 0 -75 75 -150 150 -150 110 0
187 134 128 223 -49 75 -139 99 -205 54z m131 -73 c15 -16 26 -38 26 -54 0
-36 -44 -80 -80 -80 -36 0 -80 44 -80 80 0 36 44 80 80 80 16 0 38 -11 54 -26z"/>
<path d="M544 1768 c-71 -49 -92 -127 -54 -197 60 -105 191 -107 258 -4 81
122 -83 283 -204 201z m109 -60 c31 -16 46 -39 47 -69 0 -35 -45 -79 -80 -79
-36 0 -80 44 -80 80 0 32 43 80 72 80 11 0 29 -5 41 -12z"/>
<path d="M1203 1767 c-96 -66 -95 -191 4 -255 121 -80 281 80 201 201 -49 75
-139 99 -205 54z m128 -76 c16 -16 29 -39 29 -51 0 -28 -52 -80 -80 -80 -12 0
-35 13 -51 29 -16 16 -29 39 -29 51 0 12 13 35 29 51 16 16 39 29 51 29 12 0
35 -13 51 -29z"/>
<path d="M214 1708 c-99 -68 -97 -191 3 -256 65 -43 153 -20 201 55 81 122
-83 283 -204 201z m104 -62 c15 -8 34 -26 42 -41 12 -23 12 -29 -2 -52 -8 -14
-27 -33 -42 -42 -24 -14 -28 -14 -52 0 -15 9 -34 28 -42 42 -14 23 -14 29 -2
52 8 15 26 33 40 40 31 18 26 18 58 1z"/>
<path d="M1533 1707 c-96 -66 -95 -191 4 -255 122 -81 282 79 201 201 -49 75
-139 99 -205 54z m129 -75 c5 -5 11 -25 14 -44 8 -44 -21 -78 -66 -78 -62 0
-93 77 -49 121 17 17 29 20 57 15 19 -3 39 -9 44 -14z"/>
<path d="M756 1381 c-39 -11 -62 -24 -67 -37 -11 -28 -10 -593 1 -699 5 -49
17 -115 25 -145 20 -68 41 -165 55 -250 24 -146 43 -164 180 -164 137 0 156
18 180 164 14 85 35 182 55 250 8 30 20 96 25 145 11 105 12 671 1 699 -20 52
-319 76 -455 37z m299 -60 c53 -14 71 -23 73 -37 1 -11 -19 -62 -45 -114 l-49
-95 -84 0 -84 0 -49 95 c-26 52 -46 103 -45 114 2 14 20 23 68 36 85 23 130
23 215 1z m-268 -184 c7 -4 13 -16 13 -26 0 -11 12 -32 28 -48 51 -55 204 -53
249 4 13 15 23 36 23 45 0 9 6 21 13 25 7 4 17 19 24 33 15 35 16 -163 2 -390
-9 -140 -17 -196 -40 -277 -16 -57 -29 -118 -29 -136 0 -18 -6 -56 -14 -83 -8
-27 -16 -62 -18 -79 -3 -28 -7 -30 -48 -35 -25 -3 -63 -3 -85 0 -36 4 -40 8
-43 35 -2 17 -10 52 -18 79 -8 27 -14 66 -14 85 0 20 -12 72 -26 116 -31 96
-43 225 -49 505 -3 161 -1 200 8 180 6 -14 17 -29 24 -33z"/>
</g>
</svg>
