<?xml version="1.0" standalone="no"?>
<!DOCTYPE svg PUBLIC "-//W3C//DTD SVG 20010904//EN"
 "http://www.w3.org/TR/2001/REC-SVG-20010904/DTD/svg10.dtd">
<svg version="1.0" xmlns="http://www.w3.org/2000/svg"
 width="192.000000pt" height="192.000000pt" viewBox="0 0 192.000000 192.000000"
 preserveAspectRatio="xMidYMid meet">
<metadata>
Created by potrace 1.10, written by Peter Selinger 2001-2011
</metadata>
<g transform="translate(0.000000,192.000000) scale(0.100000,-0.100000)"
fill="#000000" stroke="none">
<path d="M871 1593 c-34 -24 -71 -88 -71 -123 0 -16 7 -47 16 -69 49 -123 219
-123 268 0 30 75 11 143 -54 189 -35 25 -124 27 -159 3z m109 -58 c33 -17 60
-51 60 -76 0 -31 -55 -79 -90 -79 -37 0 -90 49 -90 82 0 21 63 88 81 88 6 0
23 -7 39 -15z"/>
<path d="M538 1559 c-38 -28 -68 -81 -68 -119 0 -48 38 -117 77 -140 47 -28
115 -26 154 3 38 27 69 85 69 127 0 42 -31 100 -69 128 -40 29 -124 30 -163 1z
m112 -54 c33 -17 60 -52 60 -76 0 -28 -58 -79 -90 -79 -33 0 -90 51 -90 80 0
20 63 90 81 90 5 0 23 -7 39 -15z"/>
<path d="M1193 1552 c-62 -54 -78 -123 -44 -190 57 -111 203 -111 259 2 28 54
28 99 1 142 -33 53 -69 74 -131 74 -43 0 -59 -6 -85 -28z m116 -46 c30 -16 61
-56 61 -80 0 -26 -59 -76 -90 -76 -34 0 -90 51 -90 82 0 20 62 88 81 88 6 0
23 -7 38 -14z"/>
<path d="M185 1475 c-43 -43 -45 -47 -45 -104 0 -57 2 -61 46 -105 43 -43 49
-46 100 -46 41 0 62 6 85 22 66 49 86 126 50 196 -30 58 -70 82 -136 82 -52 0
-58 -2 -100 -45z m142 -35 c45 -27 58 -54 43 -90 -31 -76 -121 -78 -159 -3
-16 32 -14 39 24 78 41 40 49 42 92 15z"/>
<path d="M1523 1492 c-85 -73 -82 -184 6 -250 23 -16 44 -22 85 -22 51 0 57 3
100 46 44 44 46 48 46 105 0 57 -2 61 -45 104 -43 43 -47 45 -102 45 -48 0
-63 -5 -90 -28z m116 -46 c36 -19 64 -61 56 -85 -10 -33 -56 -71 -86 -71 -33
0 -89 51 -89 82 0 21 60 88 79 88 7 0 25 -7 40 -14z"/>
<path d="M334 1103 l-192 -3 0 -360 0 -359 202 -3 c110 -2 209 -1 219 1 21 4
23 49 2 57 -8 4 -90 7 -182 8 l-166 1 -1 130 0 130 149 2 c83 1 158 2 168 2
12 1 17 9 17 31 0 22 -5 30 -17 31 -10 0 -85 1 -167 2 l-149 2 0 130 0 130
164 2 c90 1 170 2 177 2 18 1 15 58 -4 65 -9 3 -19 5 -22 4 -4 -2 -93 -4 -198
-5z"/>
<path d="M1558 1103 l-177 -3 0 -329 c0 -181 -3 -340 -6 -354 -8 -31 23 -52
62 -42 l26 6 -4 162 -4 162 126 1 c140 0 159 4 159 34 0 30 -19 34 -159 34
l-126 1 0 130 0 130 150 0 c83 1 156 4 163 9 18 11 14 44 -7 56 -11 5 -21 9
-23 8 -2 -1 -83 -4 -180 -5z"/>
<path d="M678 748 c-3 -385 -2 -390 49 -372 l27 9 -2 155 c-1 85 -5 219 -8
298 -6 120 -4 142 8 142 16 0 48 -81 48 -120 0 -13 6 -42 14 -65 7 -22 21 -74
31 -115 9 -41 21 -84 25 -95 5 -11 19 -62 31 -112 16 -68 27 -94 40 -98 31
-10 58 12 64 53 4 20 12 55 20 77 13 41 31 102 60 210 9 33 23 83 31 111 8 28
14 60 14 72 0 31 10 52 26 52 11 0 12 -49 7 -285 -6 -259 -5 -285 10 -291 10
-3 27 -4 40 -1 l22 6 -3 358 -2 358 -53 0 c-51 0 -52 -1 -55 -30 -1 -16 -7
-39 -11 -50 -9 -19 -15 -40 -42 -147 -6 -24 -14 -50 -18 -58 -4 -8 -23 -76
-41 -150 -18 -74 -35 -142 -37 -150 -9 -31 -32 22 -58 138 -15 65 -33 135 -40
157 -7 22 -18 58 -23 80 -6 22 -20 72 -32 112 -11 39 -20 78 -20 87 0 13 -12
16 -60 16 l-59 0 -3 -352z"/>
</g>
</svg>
