<?xml version="1.0" standalone="no"?>
<!DOCTYPE svg PUBLIC "-//W3C//DTD SVG 20010904//EN"
 "http://www.w3.org/TR/2001/REC-SVG-20010904/DTD/svg10.dtd">
<svg version="1.0" xmlns="http://www.w3.org/2000/svg"
 width="192.000000pt" height="192.000000pt" viewBox="0 0 192.000000 192.000000"
 preserveAspectRatio="xMidYMid meet">
<metadata>
Created by potrace 1.10, written by Peter Selinger 2001-2011
</metadata>
<g transform="translate(0.000000,192.000000) scale(0.100000,-0.100000)"
fill="#000000" stroke="none">
<path d="M893 1790 c-24 -10 -53 -58 -53 -89 0 -11 9 -44 21 -73 14 -35 19
-65 15 -88 -6 -40 9 -105 48 -206 46 -117 69 -164 82 -164 13 0 34 58 34 97 0
12 -5 34 -11 49 -13 35 -27 134 -40 284 -11 131 -23 176 -49 190 -21 11 -18
11 -47 0z"/>
<path d="M1281 1709 c-25 -27 -26 -61 -5 -141 13 -53 13 -65 0 -106 -31 -102
-25 -307 11 -319 13 -5 61 64 72 104 5 17 14 119 21 227 13 192 13 198 -7 224
-26 35 -65 40 -92 11z"/>
<path d="M554 1635 c-20 -31 -12 -66 35 -159 21 -43 27 -65 21 -84 -9 -36 13
-108 43 -141 13 -14 39 -54 57 -89 38 -72 96 -130 113 -113 8 8 8 20 -2 44 -7
17 -17 52 -21 77 -4 25 -17 66 -28 90 -50 114 -83 211 -77 229 8 28 -13 99
-42 139 -31 41 -74 44 -99 7z"/>
<path d="M1601 1394 c-33 -23 -51 -74 -51 -142 0 -38 -9 -83 -24 -123 -31 -84
-45 -209 -23 -209 20 0 44 35 89 130 67 140 83 190 83 263 0 56 -3 71 -19 83
-25 18 -27 18 -55 -2z"/>
<path d="M1006 998 c-11 -6 -43 -8 -79 -5 -106 10 -136 -24 -97 -110 46 -102
51 -122 36 -156 -14 -33 -97 -116 -136 -137 -27 -14 -88 -5 -113 18 -10 9 -27
37 -39 63 -11 26 -29 56 -40 66 -11 10 -30 41 -43 68 -34 78 -113 135 -188
135 -34 0 -77 -29 -77 -53 0 -36 132 -158 220 -205 96 -50 160 -123 160 -182
0 -80 66 -185 170 -272 78 -65 116 -85 187 -99 58 -12 66 -11 115 9 34 14 74
22 111 22 45 0 72 7 125 34 37 19 74 42 83 52 9 11 26 51 38 91 12 40 25 75
30 78 23 13 43 154 39 274 -3 117 -4 120 -32 150 -21 22 -39 31 -63 31 -21 0
-43 10 -65 29 -42 36 -90 61 -120 61 -30 1 -107 22 -135 38 -27 15 -62 15 -87
0z"/>
</g>
</svg>
