<?xml version="1.0" standalone="no"?>
<!DOCTYPE svg PUBLIC "-//W3C//DTD SVG 20010904//EN"
 "http://www.w3.org/TR/2001/REC-SVG-20010904/DTD/svg10.dtd">
<svg version="1.0" xmlns="http://www.w3.org/2000/svg"
 width="64.000000pt" height="64.000000pt" viewBox="0 0 64.000000 64.000000"
 preserveAspectRatio="xMidYMid meet">
<metadata>
Created by potrace 1.10, written by Peter Selinger 2001-2011
</metadata>
<g transform="translate(0.000000,64.000000) scale(0.100000,-0.100000)"
fill="#000000" stroke="none">
<path d="M177 553 c-9 -11 -17 -34 -17 -51 0 -36 22 -52 69 -52 81 0 83 103 1
116 -27 5 -39 1 -53 -13z m78 -54 c0 -20 -39 -23 -55 -4 -10 12 -10 18 0 30
11 13 16 14 34 2 12 -8 21 -21 21 -28z"/>
<path d="M399 507 c-64 -34 -93 -96 -97 -207 -3 -78 -1 -90 25 -139 36 -70 95
-105 163 -98 47 5 80 33 80 68 0 27 -25 23 -45 -7 -15 -24 -22 -26 -61 -21
-81 9 -124 75 -124 192 0 117 43 183 124 192 39 5 46 3 61 -21 30 -46 61 -25
35 24 -10 19 -59 40 -95 40 -12 0 -42 -10 -66 -23z"/>
<path d="M65 320 c-11 -18 0 -22 72 -23 54 -2 68 1 68 13 0 12 -15 16 -67 18
-41 2 -69 -1 -73 -8z"/>
</g>
</svg>
