<?xml version="1.0" standalone="no"?>
<!DOCTYPE svg PUBLIC "-//W3C//DTD SVG 20010904//EN"
 "http://www.w3.org/TR/2001/REC-SVG-20010904/DTD/svg10.dtd">
<svg version="1.0" xmlns="http://www.w3.org/2000/svg"
 width="192.000000pt" height="192.000000pt" viewBox="0 0 192.000000 192.000000"
 preserveAspectRatio="xMidYMid meet">
<metadata>
Created by potrace 1.10, written by Peter Selinger 2001-2011
</metadata>
<g transform="translate(0.000000,192.000000) scale(0.100000,-0.100000)"
fill="#000000" stroke="none">
<path d="M866 1572 c-36 -7 -96 -54 -98 -76 -5 -75 27 -152 68 -162 39 -10 94
3 121 27 27 26 47 91 39 125 -15 57 -74 97 -130 86z m22 -98 c19 -13 31 -44
17 -44 -14 0 -64 44 -59 52 7 12 17 10 42 -8z"/>
<path d="M572 1139 c-50 -25 -69 -60 -77 -146 -10 -101 -4 -117 58 -153 94
-54 205 -34 257 46 31 46 27 138 -8 189 -48 70 -156 100 -230 64z m107 -99
c28 -14 45 -64 31 -89 -13 -25 -27 -27 -52 -5 -14 14 -20 14 -33 4 -25 -21
-45 -4 -45 38 0 21 5 43 12 50 14 14 62 16 87 2z"/>
<path d="M1225 815 c-64 -34 -114 -131 -115 -224 0 -40 39 -111 73 -134 32
-21 137 -42 167 -34 41 11 86 43 116 83 25 33 29 46 29 103 0 54 -5 75 -28
113 -49 84 -171 130 -242 93z m113 -112 c23 -45 22 -82 -4 -112 -14 -17 -23
-35 -20 -40 8 -13 -45 -24 -78 -15 -29 7 -31 15 -15 46 6 12 13 42 15 67 2 29
9 50 20 58 26 19 72 16 82 -4z"/>
</g>
</svg>
