<?xml version="1.0" standalone="no"?>
<!DOCTYPE svg PUBLIC "-//W3C//DTD SVG 20010904//EN"
 "http://www.w3.org/TR/2001/REC-SVG-20010904/DTD/svg10.dtd">
<svg version="1.0" xmlns="http://www.w3.org/2000/svg"
 width="192.000000pt" height="192.000000pt" viewBox="0 0 192.000000 192.000000"
 preserveAspectRatio="xMidYMid meet">
<metadata>
Created by potrace 1.10, written by Peter Selinger 2001-2011
</metadata>
<g transform="translate(0.000000,192.000000) scale(0.100000,-0.100000)"
fill="#000000" stroke="none">
<path d="M298 1521 c-47 -3 -90 -9 -94 -13 -4 -5 -8 -36 -8 -70 l-1 -63 -42
-3 c-35 -3 -44 -7 -48 -25 -3 -12 -4 -242 -3 -512 l3 -490 835 0 835 0 3 499
c1 348 -1 503 -9 512 -6 7 -27 14 -47 16 l-37 3 -1 64 c-1 39 -7 67 -14 71
-37 23 -535 24 -576 1 -11 -5 -40 -20 -66 -32 -27 -12 -48 -25 -48 -28 0 -4
-9 -12 -21 -19 -18 -12 -24 -11 -43 6 -11 11 -41 30 -66 42 -25 12 -54 27 -65
33 -23 13 -350 18 -487 8z m418 -62 c65 -12 180 -63 188 -85 10 -26 8 -938 -2
-942 -5 -1 -29 4 -53 13 -119 44 -249 63 -436 64 -84 1 -153 4 -153 9 -5 303
0 926 6 932 9 9 85 13 295 18 52 1 122 -3 155 -9z m897 -5 c16 -5 17 -34 15
-472 l-3 -467 -201 -6 c-110 -3 -207 -9 -214 -14 -8 -5 -42 -15 -75 -21 -33
-7 -80 -20 -104 -29 -24 -9 -48 -14 -53 -13 -10 4 -12 916 -2 942 8 21 124 75
185 85 52 10 416 5 452 -5z m-1411 -566 l3 -423 185 -7 c210 -7 303 -18 375
-45 l50 -18 -314 -3 c-244 -2 -318 1 -328 10 -9 10 -12 113 -13 448 -1 239 -1
441 0 448 0 6 9 12 20 12 19 0 20 -8 22 -422z m1523 -30 c0 -245 -4 -450 -8
-454 -8 -8 -647 -17 -647 -9 0 2 30 13 68 24 95 28 216 41 379 41 109 0 143 3
152 14 9 10 12 122 11 418 -1 221 -1 407 -1 411 1 5 11 7 24 5 l22 -3 0 -447z"/>
</g>
</svg>
