<svg
     focusable="false"
     aria-hidden="true"
     viewBox="0 0 400 400"
     data-testid="Dots_Icon">
        <path d="M171.836 26.636 C 169.697 30.632,171.641 33.388,176.006 32.547 C 177.899 32.182,178.906 30.646,
        178.906 28.125 C 178.906 23.102,174.252 22.122,171.836 26.636 M218.750 29.520 C 218.750 32.834,222.227 34.741,
        225.781 33.378 C 228.859 32.197,228.783 28.712,225.653 27.511 C 221.196 25.801,218.750 26.513,
        218.750 29.520 M167.242 71.772 C 162.741 80.184,166.613 87.500,175.567 87.500 C 183.394 87.500,
        187.551 76.837,181.920 71.205 C 178.369 67.655,169.258 68.007,167.242 71.772 M215.760 71.740 C 209.178 78.322,
        213.903 89.063,223.383 89.063 C 228.654 89.063,231.250 85.551,231.250 78.419 C 231.250 70.319,221.420 66.080,
        215.760 71.740 M121.836 76.636 C 119.697 80.632,121.641 83.388,126.006 82.547 C 127.899 82.182,128.906 80.646,
        128.906 78.125 C 128.906 73.102,124.252 72.122,121.836 76.636 M72.770 79.172 C 72.217 80.614,72.667 82.336,
        73.775 83.022 C 76.237 84.544,80.487 80.682,78.999 78.275 C 77.412 75.708,73.906 76.213,
        72.770 79.172 M267.727 78.974 C 266.652 81.775,266.904 82.104,271.094 83.364 C 275.206 84.601,278.829 82.214,
        277.620 79.064 C 276.391 75.860,268.948 75.792,267.727 78.974 M317.188 79.573 C 317.188 81.809,318.191 82.813,
        320.427 82.813 C 324.431 82.813,323.977 77.641,319.904 76.856 C 318.029 76.495,317.188 77.337,
        317.188 79.573 M166.024 115.966 C 158.819 119.441,158.339 133.666,165.243 139.098 C 177.120 148.440,192.140 135.785,
        186.529 121.164 C 184.310 115.379,173.120 112.543,166.024 115.966 M215.213 115.144 C 209.396 116.661,206.243 127.659,
        209.547 134.910 C 215.021 146.923,235.938 142.898,235.938 129.832 C 235.938 117.844,227.577 111.919,
        215.213 115.144 M119.288 120.321 C 114.635 122.178,113.025 130.216,116.304 135.220 C 121.439 143.056,132.813 138.484,
        132.813 128.584 C 132.813 121.607,126.196 117.565,119.288 120.321 M263.523 121.607 C 257.875 127.849,262.924 137.500,
        271.839 137.500 C 280.371 137.500,283.580 127.554,277.130 121.103 C 273.904 117.877,266.656 118.146,
        263.523 121.607 M73.168 124.534 C 72.035 129.259,73.520 133.026,76.304 132.490 C 79.844 131.808,79.905 122.891,
        76.374 122.211 C 74.956 121.938,73.545 122.961,73.168 124.534 M317.188 128.906 C 317.188 132.205,317.917 132.813,
        321.875 132.813 C 326.790 132.813,328.023 130.210,324.688 126.875 C 321.323 123.510,317.188 124.630,
        317.188 128.906 M169.531 160.703 C 151.211 166.660,152.821 191.909,171.787 196.074 C 180.495 197.987,
        192.188 187.406,192.188 177.613 C 192.188 171.287,177.962 157.812,173.097 159.531 C 172.855 159.616,171.250 160.144,
        169.531 160.703 M214.439 162.470 C 200.252 171.180,200.631 185.668,215.270 194.218 C 221.943 198.115,227.018 196.787,
        234.660 189.145 C 248.475 175.330,231.013 152.294,214.439 162.470 M116.024 165.966 C 108.819 169.441,108.339 183.666,
        115.243 189.098 C 127.120 198.440,142.140 185.785,136.529 171.164 C 134.310 165.379,123.120 162.543,
        116.024 165.966 M265.213 165.144 C 259.396 166.661,256.243 177.659,259.547 184.910 C 265.021 196.923,
        285.938 192.898,285.938 179.832 C 285.938 167.844,277.577 161.919,265.213 165.144 M67.242 171.772 C 62.741 180.184,66.613 187.500,75.567 187.500 C 83.394 187.500,87.551 176.837,81.920 171.205 C 78.369 167.655,69.258 168.007,67.242 171.772 M315.760 171.740 C 309.178 178.322,313.903 189.063,323.383 189.063 C 328.654 189.063,331.250 185.551,331.250 178.419 C 331.250 170.319,321.420 166.080,315.760 171.740 M22.902 174.142 C 21.496 177.806,23.401 181.250,26.833 181.250 C 29.250 181.250,29.791 180.347,29.401 176.966 C 28.853 172.225,24.383 170.282,22.902 174.142 M367.188 178.906 C 367.188 182.205,367.917 182.813,371.875 182.813 C 376.790 182.813,378.023 180.210,374.688 176.875 C 371.323 173.510,367.188 174.630,367.188 178.906 M163.104 212.944 C 155.051 220.325,153.967 230.208,160.420 237.430 C 174.476 253.161,200.038 235.551,189.126 217.654 C 182.673 207.071,171.684 205.082,163.104 212.944 M214.020 210.499 C 200.922 219.606,200.590 232.947,213.254 241.245 C 228.606 251.304,248.196 231.113,236.533 217.251 C 228.925 208.210,220.811 205.776,214.020 210.499 M114.063 215.625 C 109.917 219.771,109.186 231.163,112.787 235.502 C 117.577 241.274,132.659 240.501,135.970 234.313 C 143.568 220.118,125.220 204.467,114.063 215.625 M262.910 214.889 C 254.881 220.513,257.034 234.466,266.544 238.439 C 277.154 242.873,285.938 236.720,285.938 224.855 C 285.938 214.720,271.854 208.624,262.910 214.889 M67.301 218.179 C 61.184 225.956,64.885 234.375,74.420 234.375 C 83.301 234.375,86.215 224.054,79.196 217.460 C 74.428 212.980,71.239 213.173,67.301 218.179 M314.969 218.931 C 306.155 225.864,313.804 238.817,324.503 235.076 C 330.626 232.934,331.787 221.961,326.298 218.115 C 321.638 214.852,320.005 214.969,314.969 218.931 M19.618 221.734 C 16.890 226.148,24.917 231.209,28.259 227.182 C 29.638 225.520,29.606 224.441,28.125 222.656 C 25.971 220.061,20.986 219.521,19.618 221.734 M366.652 224.142 C 365.246 227.806,367.151 231.250,370.583 231.250 C 373.000 231.250,373.541 230.347,373.151 226.966 C 372.603 222.225,368.133 220.282,366.652 224.142 M164.063 265.625 C 159.917 269.771,159.186 281.163,162.787 285.502 C 167.577 291.274,182.659 290.501,185.970 284.313 C 193.568 270.118,175.220 254.467,164.063 265.625 M212.910 264.889 C 204.881 270.513,207.034 284.466,216.544 288.439 C 227.154 292.873,235.938 286.720,235.938 274.855 C 235.938 264.720,221.854 258.624,212.910 264.889 M119.098 268.057 C 110.531 274.058,117.953 288.469,127.822 284.999 C 138.852 281.120,134.812 265.625,122.771 265.625 C 122.661 265.625,121.008 266.720,119.098 268.057 M264.932 269.098 C 257.956 279.057,267.267 288.623,278.228 282.758 C 281.993 280.742,282.345 271.631,278.795 268.080 C 275.150 264.436,267.821 264.974,264.932 269.098 M69.618 271.734 C 66.890 276.148,74.917 281.209,78.259 277.182 C 79.638 275.520,79.606 274.441,78.125 272.656 C 75.971 270.061,70.986 269.521,69.618 271.734 M316.918 274.534 C 315.785 279.259,317.270 283.026,320.054 282.490 C 323.594 281.808,323.655 272.891,320.124 272.211 C 318.706 271.938,317.295 272.961,316.918 274.534 M167.301 318.179 C 161.184 325.956,164.885 334.375,174.420 334.375 C 183.301 334.375,186.215 324.054,179.196 317.460 C 174.428 312.980,171.239 313.173,167.301 318.179 M214.969 318.931 C 206.155 325.864,213.804 338.817,224.503 335.076 C 230.626 332.934,231.787 321.961,226.298 318.115 C 221.638 314.852,220.005 314.969,214.969 318.931 M72.564 322.025 C 70.888 324.736,76.124 329.188,78.360 326.952 C 79.745 325.567,79.702 324.556,78.180 322.722 C 75.823 319.882,74.026 319.659,72.564 322.025 M118.229 321.354 C 114.392 325.192,121.476 329.285,126.916 326.373 C 129.284 325.106,129.512 324.327,128.035 322.547 C 126.124 320.245,120.074 319.509,118.229 321.354 M267.324 323.712 C 266.275 326.411,266.545 327.839,268.375 329.270 C 271.607 331.799,275.336 328.904,274.685 324.371 C 274.016 319.711,269.051 319.267,267.324 323.712 M317.176 322.670 C 315.701 324.448,315.606 325.606,316.836 326.836 C 319.207 329.207,323.777 327.130,323.162 323.962 C 322.461 320.344,319.616 319.730,317.176 322.670 M168.750 373.270 C 168.750 376.584,172.227 378.491,175.781 377.128 C 178.859 375.947,178.783 372.462,175.653 371.261 C 171.196 369.551,168.750 370.263,168.750 373.270 M217.324 373.712 C 216.275 376.411,216.545 377.839,218.375 379.270 C 221.607 381.799,225.336 378.904,224.685 374.371 C 224.016 369.711,219.051 369.267,217.324 373.712 "></path>
</svg>